<svg width="1181" height="261" viewBox="0 0 1181 261" fill="none" xmlns="http://www.w3.org/2000/svg">
<path d="M0.5625 257V15.5454H104.784C122.705 15.5454 138.385 19.0824 151.825 26.1562C165.266 33.2301 175.719 43.1728 183.186 55.9844C190.653 68.7959 194.386 83.7689 194.386 100.903C194.386 118.195 190.535 133.168 182.832 145.822C175.208 158.477 164.48 168.223 150.646 175.061C136.892 181.899 120.818 185.318 102.426 185.318H40.1761V134.386H89.2216C96.9242 134.386 103.487 133.05 108.911 130.378C114.412 127.627 118.617 123.736 121.526 118.706C124.512 113.676 126.006 107.741 126.006 100.903C126.006 93.9867 124.512 88.0918 121.526 83.2188C118.617 78.267 114.412 74.4943 108.911 71.9006C103.487 69.2282 96.9242 67.892 89.2216 67.892H66.1136V257H0.5625ZM302.734 260.301C283.085 260.301 266.265 256.411 252.274 248.629C238.284 240.769 227.555 229.844 220.088 215.854C212.621 201.785 208.888 185.475 208.888 166.926C208.888 148.377 212.621 132.107 220.088 118.116C227.555 104.047 238.284 93.1222 252.274 85.3409C266.265 77.4811 283.085 73.5511 302.734 73.5511C322.384 73.5511 339.204 77.4811 353.195 85.3409C367.185 93.1222 377.914 104.047 385.381 118.116C392.848 132.107 396.581 148.377 396.581 166.926C396.581 185.475 392.848 201.785 385.381 215.854C377.914 229.844 367.185 240.769 353.195 248.629C339.204 256.411 322.384 260.301 302.734 260.301ZM303.206 212.199C308.708 212.199 313.463 210.352 317.472 206.658C321.48 202.964 324.585 197.697 326.786 190.859C328.986 184.021 330.087 175.886 330.087 166.455C330.087 156.944 328.986 148.809 326.786 142.05C324.585 135.212 321.48 129.946 317.472 126.251C313.463 122.557 308.708 120.71 303.206 120.71C297.39 120.71 292.399 122.557 288.233 126.251C284.067 129.946 280.884 135.212 278.683 142.05C276.482 148.809 275.382 156.944 275.382 166.455C275.382 175.886 276.482 184.021 278.683 190.859C280.884 197.697 284.067 202.964 288.233 206.658C292.399 210.352 297.39 212.199 303.206 212.199ZM481.467 214.085L481.939 136.744H490.428L534.286 75.9091H607.382L533.814 170.699H515.422L481.467 214.085ZM422.99 257V15.5454H488.07V257H422.99ZM534.757 257L493.257 185.318L535.7 139.102L609.268 257H534.757ZM703.646 260.301C684.31 260.301 667.647 256.607 653.657 249.219C639.745 241.752 629.016 231.062 621.471 217.151C614.004 203.16 610.271 186.419 610.271 166.926C610.271 148.22 614.043 131.871 621.589 117.881C629.134 103.89 639.784 93.0043 653.539 85.223C667.294 77.4418 683.524 73.5511 702.231 73.5511C715.907 73.5511 728.286 75.6733 739.369 79.9176C750.451 84.1619 759.922 90.3319 767.782 98.4276C775.642 106.445 781.694 116.191 785.938 127.666C790.183 139.142 792.305 152.071 792.305 166.455V181.545H630.549V145.705H732.413C732.334 140.517 730.998 135.958 728.404 132.028C725.889 128.02 722.47 124.915 718.147 122.714C713.903 120.435 709.069 119.295 703.646 119.295C698.38 119.295 693.546 120.435 689.144 122.714C684.743 124.915 681.206 127.981 678.533 131.911C675.94 135.84 674.564 140.438 674.407 145.705V184.375C674.407 190.191 675.625 195.379 678.062 199.938C680.498 204.496 683.996 208.072 688.555 210.666C693.113 213.26 698.615 214.557 705.06 214.557C709.54 214.557 713.628 213.928 717.322 212.67C721.094 211.413 724.317 209.605 726.989 207.247C729.662 204.811 731.627 201.902 732.884 198.523H792.305C790.261 211.098 785.427 222.024 777.803 231.298C770.179 240.494 760.079 247.647 747.504 252.756C735.006 257.786 720.387 260.301 703.646 260.301ZM679.594 53.2727L702.231 0.454533H757.879L722.509 53.2727H679.594ZM821.867 257V110.091H869.282C879.708 110.091 888.411 112.099 895.393 116.116C902.423 120.086 907.707 125.49 911.246 132.328C914.833 139.167 916.626 146.866 916.626 155.426C916.626 163.986 914.857 171.71 911.318 178.596C907.779 185.434 902.519 190.862 895.537 194.879C888.555 198.848 879.875 200.833 869.498 200.833H832.196V188.782H869.139C876.838 188.782 883.222 187.347 888.292 184.478C893.361 181.561 897.139 177.592 899.625 172.57C902.16 167.549 903.427 161.834 903.427 155.426C903.427 149.018 902.16 143.303 899.625 138.282C897.139 133.261 893.337 129.315 888.22 126.446C883.151 123.577 876.719 122.142 868.924 122.142H835.281V257H821.867ZM976.236 259.511C969.589 259.511 963.516 258.219 958.016 255.637C952.516 253.007 948.141 249.229 944.889 244.303C941.637 239.33 940.011 233.304 940.011 226.227C940.011 220.775 941.039 216.184 943.096 212.454C945.152 208.724 948.069 205.663 951.847 203.272C955.625 200.881 960.096 198.992 965.261 197.605C970.426 196.218 976.117 195.142 982.333 194.377C988.502 193.612 993.715 192.942 997.971 192.369C1002.28 191.795 1005.55 190.886 1007.8 189.643C1010.05 188.399 1011.17 186.391 1011.17 183.617V181.035C1011.17 173.527 1008.92 167.621 1004.43 163.317C999.98 158.965 993.572 156.789 985.203 156.789C977.264 156.789 970.784 158.535 965.763 162.026C960.79 165.517 957.299 169.629 955.29 174.364L943.167 169.988C945.654 163.962 949.097 159.156 953.497 155.57C957.896 151.935 962.822 149.329 968.274 147.751C973.725 146.125 979.249 145.312 984.844 145.312C989.052 145.312 993.428 145.862 997.971 146.962C1002.56 148.062 1006.82 149.974 1010.74 152.7C1014.66 155.378 1017.84 159.132 1020.28 163.962C1022.72 168.745 1023.94 174.818 1023.94 182.183V257H1011.17V239.569H1010.38C1008.85 242.821 1006.58 245.977 1003.57 249.038C1000.55 252.098 996.776 254.609 992.233 256.57C987.69 258.53 982.357 259.511 976.236 259.511ZM977.958 247.818C984.748 247.818 990.631 246.312 995.604 243.299C1000.58 240.286 1004.4 236.293 1007.08 231.32C1009.81 226.298 1011.17 220.775 1011.17 214.749V198.825C1010.21 199.733 1008.61 200.546 1006.36 201.263C1004.16 201.981 1001.61 202.626 998.689 203.2C995.819 203.726 992.95 204.181 990.081 204.563C987.211 204.946 984.629 205.281 982.333 205.567C976.117 206.333 970.808 207.528 966.409 209.154C962.009 210.78 958.638 213.028 956.294 215.897C953.951 218.719 952.779 222.353 952.779 226.8C952.779 233.496 955.171 238.684 959.953 242.366C964.735 246.001 970.737 247.818 977.958 247.818ZM1070.67 110.091V257H1057.9V110.091H1070.67ZM1178.49 170.992L1166.79 174.292C1165.65 170.992 1164.02 168.003 1161.92 165.325C1159.81 162.647 1157.06 160.519 1153.67 158.941C1150.32 157.363 1146.16 156.574 1141.19 156.574C1133.73 156.574 1127.6 158.343 1122.82 161.882C1118.04 165.421 1115.65 169.988 1115.65 175.583C1115.65 180.317 1117.28 184.167 1120.53 187.132C1123.83 190.049 1128.9 192.369 1135.73 194.09L1152.38 198.179C1161.61 200.427 1168.52 203.989 1173.11 208.867C1177.75 213.745 1180.07 219.866 1180.07 227.231C1180.07 233.448 1178.34 238.971 1174.9 243.801C1171.46 248.631 1166.65 252.433 1160.48 255.207C1154.36 257.933 1147.26 259.295 1139.18 259.295C1128.42 259.295 1119.55 256.88 1112.56 252.05C1105.58 247.173 1101.11 240.143 1099.15 230.961L1111.42 227.948C1113 234.5 1116.08 239.449 1120.67 242.797C1125.31 246.144 1131.41 247.818 1138.96 247.818C1147.43 247.818 1154.19 245.929 1159.26 242.151C1164.33 238.326 1166.87 233.543 1166.87 227.805C1166.87 223.357 1165.38 219.627 1162.42 216.614C1159.45 213.554 1154.96 211.306 1148.93 209.871L1130.93 205.567C1121.36 203.272 1114.29 199.638 1109.7 194.664C1105.1 189.691 1102.81 183.522 1102.81 176.157C1102.81 170.084 1104.46 164.751 1107.76 160.161C1111.06 155.522 1115.6 151.887 1121.39 149.257C1127.17 146.627 1133.77 145.312 1141.19 145.312C1151.28 145.312 1159.33 147.607 1165.36 152.198C1171.43 156.741 1175.81 163.006 1178.49 170.992Z" fill="white"/>
</svg>
