<svg width="980" height="984" viewBox="0 0 980 984" fill="none" xmlns="http://www.w3.org/2000/svg">
    <path d="M451.13 2.49246C340.59 10.5125 233.46 58.6124 152.08 136.832C120.01 167.442 101.31 190.032 77.98 225.742C35.47 290.852 6.8 372.962 1.46 444.872L0 466.252H128.76H257.52L260.43 450.952C279.86 348.432 360.03 272.632 462.31 259.762C527.9 251.502 597.63 274.092 646.7 319.282C683.14 353.052 707.68 396.532 717.39 444.392L721.52 465.042L850.76 465.772C962.51 466.262 979.76 465.772 979.76 462.862C979.76 460.922 978.06 446.342 976.12 430.552C954.25 263.642 852.7 122.742 701.6 49.6225C665.16 31.8925 619.49 16.5825 581.83 9.78247C557.78 5.16248 498.26 -0.667542 484.17 0.062439C480.77 0.302429 465.95 1.27246 451.13 2.49246Z" fill="white" fill-opacity="0.13"/>
    <path d="M465.219 313.203C394.529 322.923 333.789 377.093 314.839 446.823C309.009 468.443 309.009 515.083 314.839 536.713C328.689 587.733 363.909 630.973 410.069 653.323C439.949 667.653 456.229 671.303 491.449 671.303C518.899 671.063 523.999 670.333 543.679 663.773C575.019 653.083 593.969 641.183 617.769 617.133C635.019 599.883 640.599 592.113 650.079 573.163C666.119 540.613 669.519 523.363 668.059 484.493C666.599 442.223 659.069 419.873 635.989 387.323C598.109 333.613 530.079 304.213 465.219 313.203ZM510.889 416.693C538.339 424.223 560.939 449.003 566.769 477.673C573.809 510.953 555.349 547.153 523.529 562.703C511.629 568.533 506.769 569.503 489.029 569.503C472.269 569.263 466.439 568.293 457.449 563.673C439.229 554.203 429.509 544.963 421.009 529.173C405.219 499.533 409.349 464.073 431.459 440.263C453.799 416.213 480.529 408.193 510.889 416.693Z" fill="white" fill-opacity="0.13"/>
    <path d="M1.46 539.623C8.26 627.083 49.56 728.873 106.9 799.083C123.42 819.493 162.53 858.603 182.94 875.123C331.12 995.123 537.62 1016.99 708.88 930.993C758.92 905.733 795.61 879.243 836.42 838.193C918.53 755.843 966.63 653.073 978.54 534.773L980 519.713H850.27H720.79L717.63 537.203C705.24 610.323 646.21 682.233 576.73 708.953C542.72 722.073 527.65 724.743 489.03 724.743C460.12 724.743 450.16 723.773 433.15 719.153C341.81 694.853 275.73 622.223 259.7 528.693L258 519.703H129H0L1.46 539.623Z" fill="white" fill-opacity="0.13"/>
</svg>
